<svg width="44" height="45" viewBox="0 0 44 45" fill="none" xmlns="http://www.w3.org/2000/svg">
<path d="M12.76 0H31.24C38.28 0 44 5.85 44 13.05V31.95C44 35.4111 42.6556 38.7304 40.2627 41.1777C37.8697 43.6251 34.6242 45 31.24 45H12.76C5.72 45 0 39.15 0 31.95V13.05C0 9.58893 1.34435 6.26961 3.73732 3.82226C6.13028 1.37491 9.37584 0 12.76 0ZM12.32 4.5C10.2195 4.5 8.205 5.35339 6.71971 6.87244C5.23443 8.39148 4.4 10.4517 4.4 12.6V32.4C4.4 36.8775 7.942 40.5 12.32 40.5H31.68C33.7805 40.5 35.795 39.6466 37.2803 38.1276C38.7656 36.6085 39.6 34.5483 39.6 32.4V12.6C39.6 8.1225 36.058 4.5 31.68 4.5H12.32ZM33.55 7.875C34.2793 7.875 34.9788 8.17132 35.4945 8.69876C36.0103 9.22621 36.3 9.94158 36.3 10.6875C36.3 11.4334 36.0103 12.1488 35.4945 12.6762C34.9788 13.2037 34.2793 13.5 33.55 13.5C32.8207 13.5 32.1212 13.2037 31.6055 12.6762C31.0897 12.1488 30.8 11.4334 30.8 10.6875C30.8 9.94158 31.0897 9.22621 31.6055 8.69876C32.1212 8.17132 32.8207 7.875 33.55 7.875ZM22 11.25C24.9174 11.25 27.7153 12.4353 29.7782 14.545C31.8411 16.6548 33 19.5163 33 22.5C33 25.4837 31.8411 28.3452 29.7782 30.455C27.7153 32.5647 24.9174 33.75 22 33.75C19.0826 33.75 16.2847 32.5647 14.2218 30.455C12.1589 28.3452 11 25.4837 11 22.5C11 19.5163 12.1589 16.6548 14.2218 14.545C16.2847 12.4353 19.0826 11.25 22 11.25ZM22 15.75C20.2496 15.75 18.5708 16.4612 17.3331 17.727C16.0954 18.9929 15.4 20.7098 15.4 22.5C15.4 24.2902 16.0954 26.0071 17.3331 27.273C18.5708 28.5388 20.2496 29.25 22 29.25C23.7504 29.25 25.4292 28.5388 26.6669 27.273C27.9046 26.0071 28.6 24.2902 28.6 22.5C28.6 20.7098 27.9046 18.9929 26.6669 17.727C25.4292 16.4612 23.7504 15.75 22 15.75Z" fill="white"/>
</svg>
