<svg width="35" height="39" viewBox="0 0 35 39" fill="none" xmlns="http://www.w3.org/2000/svg">
<path d="M27.7679 6.11C26.242 4.41918 25.4011 2.24777 25.4018 0H18.5045V26.8667C18.4513 28.3206 17.8189 29.6977 16.7405 30.708C15.6622 31.7184 14.222 32.2831 12.7232 32.2833C9.55357 32.2833 6.91964 29.77 6.91964 26.65C6.91964 22.9233 10.625 20.1283 14.442 21.2767V14.43C6.74107 13.4333 0 19.24 0 26.65C0 33.865 6.16072 39 12.7009 39C19.7098 39 25.4018 33.475 25.4018 26.65V13.0217C28.1987 14.9713 31.5566 16.0174 35 16.0117V9.31667C35 9.31667 30.8036 9.51167 27.7679 6.11Z" fill="white"/>
</svg>
